<svg width="27" height="29" viewBox="0 0 27 29" fill="none" xmlns="http://www.w3.org/2000/svg">
<path d="M22.235 14.4414H22.0822C21.4545 11.4659 18.9493 9.23144 15.9583 9.23144H14.048V8.49047C14.9977 8.13156 15.6854 7.1764 15.6854 6.04757C15.6854 4.61193 14.5829 3.44258 13.2293 3.44258C11.8757 3.44258 10.7732 4.61193 10.7732 6.04757C10.7732 7.1764 11.4609 8.13156 12.4106 8.49047V9.23144H10.5003C7.50931 9.23144 5.00408 11.4659 4.37641 14.4414H4.22359C3.32301 14.4414 2.58618 15.2229 2.58618 16.1781V17.9147C2.58618 18.8699 3.32301 19.6514 4.22359 19.6514H4.52378C5.16782 21.7817 6.79431 23.4373 8.83561 24.0394C8.68278 24.3809 8.59 24.7514 8.59 25.1508C8.59 25.6313 8.95568 26.0191 9.4087 26.0191H17.0499C17.5029 26.0191 17.8686 25.6313 17.8686 25.1508C17.8686 24.7514 17.7758 24.3751 17.623 24.0394C19.6643 23.4431 21.2908 21.7817 21.9348 19.6514H22.235C23.1356 19.6514 23.8724 18.8699 23.8724 17.9147V16.1781C23.8724 15.2229 23.1356 14.4414 22.235 14.4414ZM13.2293 5.17924C13.6823 5.17924 14.048 5.56709 14.048 6.04757C14.048 6.52805 13.6823 6.9159 13.2293 6.9159C12.7763 6.9159 12.4106 6.52805 12.4106 6.04757C12.4106 5.56709 12.7763 5.17924 13.2293 5.17924ZM15.9583 22.5458H10.5003C7.94049 22.5458 5.86099 20.3403 5.86099 17.6253V15.8886C5.86099 13.1737 7.94049 10.9681 10.5003 10.9681H15.9583C18.5181 10.9681 20.5976 13.1737 20.5976 15.8886V17.6253C20.5976 20.3403 18.5181 22.5458 15.9583 22.5458Z" fill="#1699E1"/>
<path d="M10.2274 13.2836C9.32683 13.2836 8.59 14.0651 8.59 15.0203V16.757C8.59 17.7121 9.32683 18.4936 10.2274 18.4936C11.128 18.4936 11.8648 17.7121 11.8648 16.757V15.0203C11.8648 14.0651 11.128 13.2836 10.2274 13.2836Z" fill="#1699E1"/>
<path d="M16.2312 13.2836C15.3306 13.2836 14.5938 14.0651 14.5938 15.0203V16.757C14.5938 17.7121 15.3306 18.4936 16.2312 18.4936C17.1318 18.4936 17.8686 17.7121 17.8686 16.757V15.0203C17.8686 14.0651 17.1318 13.2836 16.2312 13.2836Z" fill="#1699E1"/>
<path d="M7.51477 5.13293L9.15217 5.71182C9.2395 5.74076 9.32683 5.75813 9.4087 5.75813C9.75255 5.75813 10.0691 5.52657 10.1837 5.16187C10.3256 4.70455 10.0964 4.2125 9.66523 4.06199L8.02782 3.4831C7.6021 3.33259 7.13817 3.57573 6.9908 4.03305C6.84343 4.49037 7.07813 4.98242 7.50931 5.13293H7.51477Z" fill="#1699E1"/>
<path d="M7.7713 8.65256C7.85862 8.65256 7.94595 8.64098 8.02782 8.60625L9.66523 8.02736C10.0964 7.87685 10.3256 7.3848 10.1837 6.92748C10.0418 6.47016 9.5779 6.22702 9.14672 6.37753L7.50931 6.95642C7.07813 7.10693 6.84889 7.59898 6.9908 8.0563C7.10542 8.421 7.42198 8.65256 7.76584 8.65256H7.7713Z" fill="#1699E1"/>
<path d="M17.0499 5.75813C17.1372 5.75813 17.2246 5.74655 17.3064 5.71182L18.9439 5.13293C19.375 4.98242 19.6043 4.49037 19.4624 4.03305C19.3205 3.57573 18.8565 3.33259 18.4253 3.4831L16.7879 4.06199C16.3568 4.2125 16.1275 4.70455 16.2694 5.16187C16.384 5.52657 16.7006 5.75813 17.0445 5.75813H17.0499Z" fill="#1699E1"/>
<path d="M16.7934 8.02736L18.4308 8.60625C18.5181 8.63519 18.6055 8.65256 18.6873 8.65256C19.0312 8.65256 19.3477 8.421 19.4624 8.0563C19.6043 7.59898 19.375 7.10693 18.9439 6.95642L17.3064 6.37753C16.8807 6.22702 16.4113 6.47016 16.2694 6.92748C16.1275 7.3848 16.3568 7.87685 16.7879 8.02736H16.7934Z" fill="#1699E1"/>
</svg>
