<svg width="32" height="32" viewBox="0 0 32 32" fill="none" xmlns="http://www.w3.org/2000/svg">
<path d="M27 15.6667H26.8133C26.0467 12.24 22.9867 9.66668 19.3333 9.66668H17V8.81334C18.16 8.40001 19 7.30001 19 6.00001C19 4.34668 17.6533 3.00001 16 3.00001C14.3467 3.00001 13 4.34668 13 6.00001C13 7.30001 13.84 8.40001 15 8.81334V9.66668H12.6667C9.01333 9.66668 5.95333 12.24 5.18667 15.6667H5C3.9 15.6667 3 16.5667 3 17.6667V19.6667C3 20.7667 3.9 21.6667 5 21.6667H5.36667C6.15333 24.12 8.14 26.0267 10.6333 26.72C10.4467 27.1133 10.3333 27.54 10.3333 28C10.3333 28.5533 10.78 29 11.3333 29H20.6667C21.22 29 21.6667 28.5533 21.6667 28C21.6667 27.54 21.5533 27.1067 21.3667 26.72C23.86 26.0333 25.8467 24.12 26.6333 21.6667H27C28.1 21.6667 29 20.7667 29 19.6667V17.6667C29 16.5667 28.1 15.6667 27 15.6667ZM16 5.00001C16.5533 5.00001 17 5.44668 17 6.00001C17 6.55334 16.5533 7.00001 16 7.00001C15.4467 7.00001 15 6.55334 15 6.00001C15 5.44668 15.4467 5.00001 16 5.00001ZM19.3333 25H12.6667C9.54 25 7 22.46 7 19.3333V17.3333C7 14.2067 9.54 11.6667 12.6667 11.6667H19.3333C22.46 11.6667 25 14.2067 25 17.3333V19.3333C25 22.46 22.46 25 19.3333 25Z" fill="#CECECE"/>
<path d="M12.3333 14.3333C11.2333 14.3333 10.3333 15.2333 10.3333 16.3333V18.3333C10.3333 19.4333 11.2333 20.3333 12.3333 20.3333C13.4333 20.3333 14.3333 19.4333 14.3333 18.3333V16.3333C14.3333 15.2333 13.4333 14.3333 12.3333 14.3333Z" fill="#CECECE"/>
<path d="M19.6667 14.3333C18.5667 14.3333 17.6667 15.2333 17.6667 16.3333V18.3333C17.6667 19.4333 18.5667 20.3333 19.6667 20.3333C20.7667 20.3333 21.6667 19.4333 21.6667 18.3333V16.3333C21.6667 15.2333 20.7667 14.3333 19.6667 14.3333Z" fill="#CECECE"/>
<path d="M9.02 4.94668L11.02 5.61334C11.1267 5.64668 11.2333 5.66668 11.3333 5.66668C11.7533 5.66668 12.14 5.40001 12.28 4.98001C12.4533 4.45334 12.1733 3.88668 11.6467 3.71334L9.64667 3.04668C9.12667 2.87334 8.56 3.15334 8.38 3.68001C8.2 4.20668 8.48667 4.77334 9.01333 4.94668H9.02Z" fill="#CECECE"/>
<path d="M9.33333 9.00001C9.44 9.00001 9.54667 8.98668 9.64667 8.94668L11.6467 8.28001C12.1733 8.10668 12.4533 7.54001 12.28 7.01334C12.1067 6.48668 11.54 6.20667 11.0133 6.38001L9.01333 7.04667C8.48667 7.22001 8.20667 7.78668 8.38 8.31334C8.52 8.73334 8.90667 9.00001 9.32667 9.00001H9.33333Z" fill="#CECECE"/>
<path d="M20.6667 5.66668C20.7733 5.66668 20.88 5.65334 20.98 5.61334L22.98 4.94668C23.5067 4.77334 23.7867 4.20668 23.6133 3.68001C23.44 3.15334 22.8733 2.87334 22.3467 3.04668L20.3467 3.71334C19.82 3.88668 19.54 4.45334 19.7133 4.98001C19.8533 5.40001 20.24 5.66668 20.66 5.66668H20.6667Z" fill="#CECECE"/>
<path d="M20.3533 8.28001L22.3533 8.94668C22.46 8.98001 22.5667 9.00001 22.6667 9.00001C23.0867 9.00001 23.4733 8.73334 23.6133 8.31334C23.7867 7.78668 23.5067 7.22001 22.98 7.04667L20.98 6.38001C20.46 6.20667 19.8867 6.48668 19.7133 7.01334C19.54 7.54001 19.82 8.10668 20.3467 8.28001H20.3533Z" fill="#CECECE"/>
</svg>
