<svg width="28" height="29" viewBox="0 0 28 29" fill="none" xmlns="http://www.w3.org/2000/svg">
<path d="M15.2485 4.09979H10.6948C8.63643 4.09979 7.60726 4.09979 6.96782 4.778C6.32837 5.45621 6.32837 6.54777 6.32837 8.73088V20.3086C6.32837 22.4917 6.32837 23.5833 6.96782 24.2615C7.60726 24.9397 8.63643 24.9397 10.6948 24.9397H17.2444C19.3027 24.9397 20.3319 24.9397 20.9714 24.2615C21.6108 23.5833 21.6108 22.4917 21.6108 20.3086V10.8478C21.6108 10.3745 21.6108 10.1379 21.5277 9.92516C21.4446 9.7124 21.2869 9.54508 20.9714 9.21045L16.7922 4.778C16.4767 4.44337 16.319 4.27605 16.1184 4.18792C15.9178 4.09979 15.6947 4.09979 15.2485 4.09979Z" stroke="#1699E1" stroke-width="2"/>
<path d="M10.6948 15.6775L17.2444 15.6775" stroke="#1699E1" stroke-width="2" stroke-linecap="round"/>
<path d="M10.6948 20.3086L15.0612 20.3086" stroke="#1699E1" stroke-width="2" stroke-linecap="round"/>
<path d="M15.0613 4.09979V8.73088C15.0613 9.82244 15.0613 10.3682 15.381 10.7073C15.7007 11.0464 16.2153 11.0464 17.2445 11.0464H21.6109" stroke="#1699E1" stroke-width="2"/>
</svg>
