<svg width="32" height="32" viewBox="0 0 32 32" fill="none" xmlns="http://www.w3.org/2000/svg">
<path d="M9.33325 9.50923V7.2787C9.33325 5.1328 9.33325 4.05985 10.0228 3.46177C10.7124 2.86368 11.7746 3.01542 13.8989 3.3189L22.8484 4.5974C25.3046 4.94827 26.5326 5.12371 27.2663 5.9696C27.9999 6.8155 27.9999 8.05603 27.9999 10.5371V21.4629C27.9999 23.9439 27.9999 25.1845 27.2663 26.0304C26.5326 26.8763 25.3046 27.0517 22.8484 27.4026L13.8989 28.6811C11.7746 28.9846 10.7124 29.1363 10.0228 28.5382C9.33325 27.9401 9.33325 26.8672 9.33325 24.7213V22.7546" stroke="#ECECEC" stroke-width="2"/>
<path d="M21.3333 16L22.1141 15.3753L22.6139 16L22.1141 16.6247L21.3333 16ZM5.33325 17C4.78097 17 4.33325 16.5523 4.33325 16C4.33325 15.4477 4.78097 15 5.33325 15V17ZM16.7808 8.70865L22.1141 15.3753L20.5524 16.6247L15.219 9.95804L16.7808 8.70865ZM22.1141 16.6247L16.7808 23.2914L15.219 22.042L20.5524 15.3753L22.1141 16.6247ZM21.3333 17H5.33325V15H21.3333V17Z" fill="#ECECEC"/>
</svg>
