<svg width="47" height="40" viewBox="0 0 47 40" fill="none" xmlns="http://www.w3.org/2000/svg">
<path d="M21.787 10.0506C30.1452 6.6911 39.2857 9.34419 43.4362 13.4065C44.3356 14.2866 45.0994 15.1795 45.7535 16.067C46.1266 13.9833 46.157 11.908 45.798 9.90083C44.4865 2.57241 37.6456 -1.57926 31.5128 0.565295C25.4076 2.70023 23.0264 6.84961 23.0264 6.84961C23.0264 6.84961 20.6452 2.70023 14.54 0.565295C8.40669 -1.57926 1.5658 2.57287 0.254823 9.90083C-0.712994 15.3092 1.11974 21.2137 5.00868 26.4315C5.82781 26.7096 6.68638 26.9185 7.59572 27.039C13.0436 27.7628 15.0019 26.2904 17.3034 25.3045C18.8315 24.6502 19.9811 25.3929 19.9253 25.9133C19.8387 26.7201 16.8265 28.0987 17.4724 28.3882C20.0228 29.5317 23.1633 29.5413 25.53 27.4985C28.4711 24.9604 29.5713 26.6954 29.5713 26.6954C29.5713 26.6954 28.1107 30.4608 23.7127 32.3305C20.0432 33.8905 16.1982 34.2749 12.6846 33.8754C15.715 36.0401 19.1946 37.8548 23.0264 39.1499C33.9815 35.4463 42.0745 27.5122 44.9276 19.2171C42.9947 17.2897 40.6239 16.0949 37.7979 15.662C32.365 14.8295 30.3786 16.263 28.0581 17.2027C26.5173 17.8267 25.3827 17.0611 25.4489 16.5416C25.5509 15.7366 28.5899 14.4186 27.9493 14.1157C25.4221 12.9218 22.2821 12.8494 19.8759 14.8446C16.8859 17.3236 15.8197 15.5671 15.8197 15.5671C15.8197 15.5671 17.3532 11.8324 21.787 10.0506ZM19.7077 20.3721H21.8183V18.239H24.2336V20.3721H26.3442V22.8131H24.2336V24.9462H21.8183V22.8131H19.7077V20.3721Z" fill="url(#paint0_linear_41_445)"/>
<path d="M19.7078 20.372H21.8184V18.2389H24.2336V20.372H26.3442V22.813H24.2495C27.3615 24.4023 33.0768 26.7668 39.9449 27.8187C42.2051 25.1166 43.9046 22.1904 44.9272 19.2171C42.9943 17.2897 40.6235 16.0948 37.7976 15.6619C32.3646 14.8295 30.3782 16.263 28.0577 17.2026C26.5169 17.8266 25.3823 17.0611 25.4485 16.5415C25.5505 15.7366 28.5895 14.4185 27.949 14.1157C25.4218 12.9218 22.2817 12.8494 19.8755 14.8446C16.8855 17.3236 15.8193 15.5671 15.8193 15.5671C15.8193 15.5671 17.3533 11.8318 21.7867 10.0497C30.1448 6.69012 39.2853 9.34322 43.4358 13.4056C44.3352 14.2856 45.099 15.1786 45.7532 16.066C46.1262 13.9824 46.1566 11.907 45.7976 9.89986C44.4862 2.57144 37.6453 -1.58024 31.5124 0.564318C25.4072 2.69926 23.026 6.84864 23.026 6.84864C23.026 6.84864 20.6448 2.69926 14.5396 0.564318C11.0369 -0.660751 7.30432 0.171235 4.50195 2.47294C5.81837 5.32166 7.36053 7.98345 11.7536 13.3368C15.3252 17.6901 19.7078 20.372 19.7078 20.372Z" fill="url(#paint1_linear_41_445)"/>
<path opacity="0.31" d="M38.9072 3.19851C33.1398 0.270073 27.1874 4.82674 25.2993 7.2329C28.5554 6.53973 31.4045 6.18421 35.0097 6.94977C40.3429 8.08229 42.3388 10.0285 44.72 12.9038C44.2993 7.57605 40.9698 4.24582 38.9072 3.19851Z" fill="url(#paint2_linear_41_445)"/>
<defs>
<linearGradient id="paint0_linear_41_445" x1="6.13797" y1="31.4424" x2="40.3362" y2="-2.39519" gradientUnits="userSpaceOnUse">
<stop stop-color="#0076C1"/>
<stop offset="0.0737" stop-color="#0B82C6"/>
<stop offset="0.2766" stop-color="#269ED3"/>
<stop offset="0.4546" stop-color="#36AFDA"/>
<stop offset="0.587" stop-color="#3CB5DD"/>
</linearGradient>
<linearGradient id="paint1_linear_41_445" x1="6.02276" y1="31.5198" x2="40.3233" y2="-2.419" gradientUnits="userSpaceOnUse">
<stop stop-color="#00A482"/>
<stop offset="1" stop-color="#79DD83"/>
</linearGradient>
<linearGradient id="paint2_linear_41_445" x1="34.2712" y1="10.6797" x2="41.3779" y2="4.17273" gradientUnits="userSpaceOnUse">
<stop stop-color="#00A482"/>
<stop offset="1" stop-color="#79DD83"/>
</linearGradient>
</defs>
</svg>
