<svg width="290" height="250" viewBox="0 0 290 250" fill="none" xmlns="http://www.w3.org/2000/svg">
<path d="M137.201 64.18C189.835 42.7268 247.396 59.6688 273.534 85.6097C279.197 91.2297 284.008 96.9317 288.127 102.598C290.476 89.293 290.667 76.0402 288.407 63.2233C280.148 16.4261 237.068 -10.0854 198.448 3.60918C160.001 17.2423 145.006 43.7391 145.006 43.7391C145.006 43.7391 130.01 17.2423 91.5636 3.60918C52.94 -10.0854 9.86039 16.429 1.60471 63.2233C-4.48998 97.7596 7.0514 135.464 31.5415 168.783C36.6999 170.559 42.1066 171.893 47.8331 172.663C82.1403 177.285 94.4725 167.882 108.966 161.587C118.589 157.409 125.828 162.151 125.477 165.475C124.932 170.627 105.962 179.43 110.03 181.279C126.091 188.581 145.868 188.642 160.772 175.597C179.293 159.389 186.221 170.469 186.221 170.469C186.221 170.469 177.023 194.514 149.328 206.453C126.219 216.415 102.006 218.869 79.8794 216.318C98.9628 230.141 120.875 241.729 145.006 250C213.994 226.35 264.958 175.685 282.926 122.715C270.753 110.407 255.823 102.777 238.028 100.012C203.814 94.6965 191.305 103.851 176.692 109.851C166.989 113.836 159.844 108.947 160.261 105.629C160.903 100.489 180.041 92.0723 176.007 90.1385C160.092 82.5145 140.318 82.0523 125.166 94.7931C106.336 110.623 99.6223 99.4067 99.6223 99.4067C99.6223 99.4067 109.28 75.5575 137.201 64.18ZM124.107 130.09H137.398V116.469H152.608V130.09H165.899V145.677H152.608V159.299H137.398V145.677H124.107V130.09Z" fill="url(#paint0_linear_3_270)"/>
<path d="M124.105 130.09H137.397V116.469H152.606V130.09H165.897V145.678H152.706C172.303 155.826 208.295 170.925 251.546 177.642C265.779 160.387 276.481 141.702 282.921 122.715C270.749 110.407 255.819 102.777 238.023 100.013C203.81 94.6968 191.301 103.851 176.688 109.851C166.985 113.836 159.84 108.947 160.257 105.63C160.899 100.489 180.037 92.0725 176.003 90.1387C160.088 82.5147 140.314 82.0525 125.161 94.7933C106.332 110.624 99.618 99.4069 99.618 99.4069C99.618 99.4069 109.278 75.5548 137.197 64.1744C189.831 42.7212 247.392 59.6632 273.529 85.6041C279.193 91.2241 284.003 96.9261 288.122 102.593C290.472 89.2874 290.663 76.0346 288.402 63.2177C280.144 16.4205 237.064 -10.091 198.443 3.60358C159.997 17.2367 145.001 43.7335 145.001 43.7335C145.001 43.7335 130.006 17.2367 91.5593 3.60358C69.5014 -4.21937 45.9961 1.09346 28.3486 15.7915C36.6386 33.9826 46.3501 50.9801 74.0146 85.1653C96.5064 112.964 124.105 130.09 124.105 130.09Z" fill="url(#paint1_linear_3_270)"/>
<path opacity="0.31" d="M245.013 20.4255C208.694 1.72528 171.209 30.8229 159.319 46.188C179.824 41.7616 197.766 39.4913 220.469 44.38C254.054 51.6119 266.623 64.0397 281.619 82.4006C278.969 48.3792 258.002 27.1133 245.013 20.4255Z" fill="url(#paint2_linear_3_270)"/>
<defs>
<linearGradient id="paint0_linear_3_270" x1="38.653" y1="200.782" x2="256.98" y2="-12.2538" gradientUnits="userSpaceOnUse">
<stop stop-color="#0076C1"/>
<stop offset="0.0737" stop-color="#0B82C6"/>
<stop offset="0.2766" stop-color="#269ED3"/>
<stop offset="0.4546" stop-color="#36AFDA"/>
<stop offset="0.587" stop-color="#3CB5DD"/>
</linearGradient>
<linearGradient id="paint1_linear_3_270" x1="37.9257" y1="201.277" x2="256.906" y2="-12.396" gradientUnits="userSpaceOnUse">
<stop stop-color="#00A482"/>
<stop offset="1" stop-color="#79DD83"/>
</linearGradient>
<linearGradient id="paint2_linear_3_270" x1="215.818" y1="68.1984" x2="261.14" y2="27.2756" gradientUnits="userSpaceOnUse">
<stop stop-color="#00A482"/>
<stop offset="1" stop-color="#79DD83"/>
</linearGradient>
</defs>
</svg>
