<svg width="23" height="24" viewBox="0 0 23 24" fill="none" xmlns="http://www.w3.org/2000/svg">
<path d="M4.75207 14.1892C4.45537 14.521 3.90711 14.6016 3.5275 14.3691C3.14789 14.1367 3.08069 13.6793 3.37739 13.3474L12.7387 2.87815C13.0354 2.54633 13.5837 2.46578 13.9633 2.69823C14.3429 2.93069 14.4101 3.38812 14.1134 3.71994L4.75207 14.1892Z" fill="#1699E1"/>
<rect width="1.63672" height="11.5358" rx="0.818361" transform="matrix(0.888197 -0.459462 0.605281 0.796012 6.07349 5.53625)" fill="#1699E1"/>
<rect x="6.23767" y="1.59473" width="1.44173" height="6.05485" rx="0.720863" transform="rotate(-90 6.23767 1.59473)" fill="#1699E1"/>
<rect x="0.615479" y="3.75732" width="1.44173" height="17.2996" rx="0.720863" transform="rotate(-90 0.615479 3.75732)" fill="#1699E1"/>
<rect width="1.70722" height="12.124" rx="0.853611" transform="matrix(0.96904 -0.246904 0.344408 0.93882 16.6177 11.8975)" fill="#1699E1"/>
<rect x="14.8063" y="18.6775" width="1.15777" height="5.45801" rx="0.578886" transform="rotate(-90 14.8063 18.6775)" fill="#1699E1"/>
<rect width="1.70722" height="11.93" rx="0.853611" transform="matrix(0.96904 0.246904 -0.344408 0.93882 16.9181 11.6868)" fill="#1699E1"/>
</svg>
